<?xml version="1.0" standalone="no"?>
<!DOCTYPE svg PUBLIC "-//W3C//DTD SVG 20010904//EN"
 "http://www.w3.org/TR/2001/REC-SVG-20010904/DTD/svg10.dtd">
<svg version="1.0" xmlns="http://www.w3.org/2000/svg"
 width="512.000000pt" height="512.000000pt" viewBox="0 0 512.000000 512.000000"
 preserveAspectRatio="xMidYMid meet">

<g transform="translate(0.000000,512.000000) scale(0.100000,-0.100000)"
fill="#000000" stroke="none">
<path d="M655 4615 c-24 -23 -25 -29 -25 -160 l0 -135 -103 0 c-148 0 -147 1
-147 -180 l0 -140 -72 0 c-91 0 -134 -12 -194 -53 -86 -59 -132 -183 -105
-284 32 -116 129 -193 257 -201 l74 -5 0 -1217 0 -1217 -74 -5 c-166 -11 -279
-138 -263 -296 11 -105 94 -204 195 -232 51 -14 4673 -14 4724 0 101 28 184
127 195 232 16 158 -97 285 -263 296 l-74 5 0 1217 0 1217 74 5 c128 8 225 85
257 201 27 101 -19 225 -105 284 -60 41 -103 53 -193 53 l-73 0 0 140 c0 181
1 180 -147 180 l-103 0 0 135 c0 131 -1 137 -25 160 l-24 25 -256 0 -256 0
-24 -25 c-24 -23 -25 -29 -25 -160 l0 -135 -103 0 c-148 0 -147 1 -147 -180
l0 -140 -1070 0 -1070 0 0 140 c0 181 1 180 -147 180 l-103 0 0 135 c0 131 -1
137 -25 160 l-24 25 -256 0 -256 0 -24 -25z m445 -205 l0 -90 -165 0 -165 0 0
90 0 90 165 0 165 0 0 -90z m3250 0 l0 -90 -165 0 -165 0 0 90 0 90 165 0 165
0 0 -90z m-3000 -320 l0 -90 -415 0 -415 0 0 90 0 90 415 0 415 0 0 -90z
m3250 0 l0 -90 -415 0 -415 0 0 90 0 90 415 0 415 0 0 -90z m327 -256 c15 -11
35 -40 43 -62 13 -37 13 -47 0 -84 -8 -22 -28 -51 -43 -62 l-28 -21 -2325 -3
c-1992 -2 -2329 0 -2358 12 -94 39 -98 182 -6 229 33 16 162 17 2362 15 l2327
-3 28 -21z m-287 -1594 l0 -1220 -2080 0 -2080 0 0 1220 0 1220 2080 0 2080 0
0 -1220z m287 -1386 c15 -11 35 -40 43 -62 13 -37 13 -47 0 -84 -8 -22 -28
-51 -43 -62 l-28 -21 -2325 -3 c-1992 -2 -2329 0 -2358 12 -94 39 -98 182 -6
229 33 16 162 17 2362 15 l2327 -3 28 -21z"/>
<path d="M982 3177 c-19 -20 -22 -35 -22 -110 l0 -87 -88 0 c-80 0 -91 -2
-110 -23 -29 -30 -28 -62 3 -92 22 -23 32 -25 110 -25 l85 0 0 -89 c0 -85 1
-91 26 -110 35 -27 59 -26 89 4 23 22 25 32 25 110 l0 85 85 0 c78 0 88 2 110
25 30 30 31 54 4 89 -19 25 -25 26 -110 26 l-89 0 0 85 c0 78 -2 88 -25 110
-30 31 -65 32 -93 2z"/>
<path d="M2522 3183 c-21 -19 -472 -1072 -472 -1103 0 -10 9 -28 19 -41 19
-24 23 -24 220 -27 l201 -3 0 -349 0 -349 22 -15 c29 -21 61 -20 86 2 12 10
118 247 248 555 197 466 226 542 218 565 -16 46 -43 52 -246 52 l-188 0 0 345
c0 332 -1 346 -20 365 -25 25 -61 26 -88 3z m-24 -820 c1 -1 9 -9 18 -17 13
-13 45 -16 195 -16 98 0 179 -3 179 -7 0 -5 -59 -145 -130 -313 l-130 -305 0
196 c0 183 -1 198 -21 223 l-20 26 -180 0 c-145 0 -180 3 -177 13 2 7 59 146
128 308 l125 295 6 -201 c3 -110 6 -201 7 -202z"/>
<path d="M3821 2954 c-27 -35 -26 -59 4 -89 l24 -25 241 0 241 0 24 25 c31 30
32 65 2 93 -23 21 -30 22 -269 22 l-247 0 -20 -26z"/>
</g>
</svg>
